<svg xmlns="http://www.w3.org/2000/svg" fill="rgb(39 39 42)" width="128" height="128" viewBox="0 0 24 24"><g fill-rule="evenodd"><path d="M1.5 4a.5.5 0 0 1 .5-.5h20a.5.5 0 0 1 .5.5v17.5a.5.5 0 0 1-.5.5H2a.5.5 0 0 1-.5-.5V4Zm1 .5V21h19V4.5h-19Z"/><path d="M1.5 4a.5.5 0 0 1 .5-.5h20a.5.5 0 0 1 .5.5v4a.5.5 0 0 1-.5.5H2a.5.5 0 0 1-.5-.5V4Zm1 .5v3h19v-3h-19ZM16 10.5a.5.5 0 0 1 .5-.5h3a.5.5 0 0 1 .5.5v3a.5.5 0 0 1-.5.5h-3a.5.5 0 0 1-.5-.5v-3Zm1 .5v2h2v-2h-2ZM10 10.5a.5.5 0 0 1 .5-.5h3a.5.5 0 0 1 .5.5v3a.5.5 0 0 1-.5.5h-3a.5.5 0 0 1-.5-.5v-3Zm1 .5v2h2v-2h-2ZM4 16a.5.5 0 0 1 .5-.5h3a.5.5 0 0 1 .5.5v3a.5.5 0 0 1-.5.5h-3A.5.5 0 0 1 4 19v-3Zm1 .5v2h2v-2H5ZM10 16a.5.5 0 0 1 .5-.5h3a.5.5 0 0 1 .5.5v3a.5.5 0 0 1-.5.5h-3a.5.5 0 0 1-.5-.5v-3Zm1 .5v2h2v-2h-2ZM16 16a.5.5 0 0 1 .5-.5h3a.5.5 0 0 1 .5.5v3a.5.5 0 0 1-.5.5h-3a.5.5 0 0 1-.5-.5v-3Zm1 .5v2h2v-2h-2Z"/><path d="M6 1.5a.5.5 0 0 1 .5.5v4a.5.5 0 0 1-1 0V2a.5.5 0 0 1 .5-.5ZM18 1.5a.5.5 0 0 1 .5.5v4a.5.5 0 0 1-1 0V2a.5.5 0 0 1 .5-.5Z"/></g></svg>