<svg xmlns="http://www.w3.org/2000/svg" fill="rgb(39 39 42)" xml:space="preserve" width="128" height="128" viewBox="0 0 24 24"><path d="M10.38 21H2.5A2.503 2.503 0 0 1 0 18.5v-14C0 3.121 1.122 2 2.5 2h12C15.878 2 17 3.121 17 4.5v5.03a.5.5 0 0 1-1 0V4.5c0-.827-.673-1.5-1.5-1.5h-12C1.673 3 1 3.673 1 4.5v14c0 .827.673 1.5 1.5 1.5h7.88a.5.5 0 0 1 0 1z"/><path d="M3.5 5a.5.5 0 0 1-.5-.5v-4a.5.5 0 0 1 1 0v4a.5.5 0 0 1-.5.5zM8.5 5a.5.5 0 0 1-.5-.5v-4a.5.5 0 0 1 1 0v4a.5.5 0 0 1-.5.5zM13.5 5a.5.5 0 0 1-.5-.5v-4a.5.5 0 0 1 1 0v4a.5.5 0 0 1-.5.5zM11.02 13H3.5a.5.5 0 0 1 0-1h7.52a.5.5 0 0 1 0 1zM8.5 9h-5a.5.5 0 0 1 0-1h5a.5.5 0 0 1 0 1zM23.5 24a.502.502 0 0 1-.354-.146l-3.318-3.318a.5.5 0 0 1 .707-.707l3.318 3.318A.5.5 0 0 1 23.5 24z"/><path d="M17 22c-2.757 0-5-2.243-5-5s2.243-5 5-5 5 2.243 5 5-2.243 5-5 5zm0-9c-2.206 0-4 1.794-4 4s1.794 4 4 4 4-1.794 4-4-1.794-4-4-4z"/></svg>