<svg xmlns="http://www.w3.org/2000/svg" fill="rgb(39 39 42)" xml:space="preserve" width="128" height="128" viewBox="0 0 24 24"><path d="M23.5 22h-11a.5.5 0 0 1 0-1h11a.5.5 0 0 1 0 1zM23.5 12h-11a.5.5 0 0 1 0-1h11a.5.5 0 0 1 0 1zM23.5 2h-11a.5.5 0 0 1 0-1h11a.5.5 0 0 1 0 1zM9.5 6a.502.502 0 0 1-.354-.146L5.5 2.207 1.854 5.854a.5.5 0 0 1-.707-.707l4-4a.5.5 0 0 1 .707 0l4 4A.5.5 0 0 1 9.5 6zM5.5 22a.502.502 0 0 1-.354-.146l-4-4a.5.5 0 0 1 .707-.707L5.5 20.793l3.646-3.646a.5.5 0 0 1 .707.707l-4 4A.498.498 0 0 1 5.5 22z"/><path d="M5.5 22a.5.5 0 0 1-.5-.5v-20a.5.5 0 0 1 1 0v20a.5.5 0 0 1-.5.5z"/></svg>