<svg xmlns="http://www.w3.org/2000/svg" fill="rgb(39 39 42)" xml:space="preserve" width="128" height="128" viewBox="0 0 24 24"><path d="M23.5 5h-16a.5.5 0 0 1 0-1h16a.5.5 0 0 1 0 1zM23.5 13h-16a.5.5 0 0 1 0-1h16a.5.5 0 0 1 0 1zM23.5 21h-16a.5.5 0 0 1 0-1h16a.5.5 0 0 1 0 1zM4.5 15h-3a.5.5 0 0 1-.5-.5v-1.25c0-.965.785-1.75 1.75-1.75h.5c.413 0 .75-.337.75-.75S3.663 10 3.25 10H1.5a.5.5 0 0 1 0-1h1.75C4.215 9 5 9.785 5 10.75s-.785 1.75-1.75 1.75h-.5a.752.752 0 0 0-.75.75V14h2.5a.5.5 0 0 1 0 1zM3.5 20.5H2a.5.5 0 0 1 0-1h1.5c.275 0 .5-.225.5-.5v-.5c0-.275-.225-.5-.5-.5h-2a.5.5 0 0 1 0-1h2c.827 0 1.5.673 1.5 1.5v.5c0 .827-.673 1.5-1.5 1.5z"/><path d="M3.5 23h-2a.5.5 0 0 1 0-1h2c.275 0 .5-.225.5-.5V21c0-.275-.225-.5-.5-.5H2a.5.5 0 0 1 0-1h1.5c.827 0 1.5.673 1.5 1.5v.5c0 .827-.673 1.5-1.5 1.5zM3.5 7a.5.5 0 0 1-.5-.5V2H1.5a.5.5 0 0 1 0-1h2a.5.5 0 0 1 .5.5v5a.5.5 0 0 1-.5.5z"/></svg>