<svg xmlns="http://www.w3.org/2000/svg" xml:space="preserve" width="128" height="128" viewBox="0 0 24 24"><path d="M9.43 21H2.5A2.503 2.503 0 0 1 0 18.5v-16C0 1.121 1.122 0 2.5 0h12C15.878 0 17 1.121 17 2.5v9.32a.5.5 0 0 1-1 0V2.5c0-.827-.673-1.5-1.5-1.5h-12C1.673 1 1 1.673 1 2.5v16c0 .827.673 1.5 1.5 1.5h6.93a.5.5 0 0 1 0 1z"/><path d="M13.5 9h-10a.5.5 0 0 1 0-1h10a.5.5 0 0 1 0 1zM9.5 13h-6a.5.5 0 0 1 0-1h6a.5.5 0 0 1 0 1zM8.5 5h-5a.5.5 0 0 1 0-1h5a.5.5 0 0 1 0 1zM11.894 24a.502.502 0 0 1-.491-.597l.707-3.535a.497.497 0 0 1 .137-.256l7.778-7.778c.565-.566 1.555-.566 2.121 0l1.414 1.414a1.501 1.501 0 0 1 0 2.121l-7.778 7.778a.506.506 0 0 1-.255.137l-3.535.707a.55.55 0 0 1-.098.009zm1.167-3.789-.53 2.651 2.651-.53 7.671-7.671a.5.5 0 0 0 0-.707l-1.414-1.414a.512.512 0 0 0-.707 0l-7.671 7.671zm2.368 2.582h.01-.01z"/></svg>