<svg xmlns="http://www.w3.org/2000/svg" fill="rgb(39 39 42)" xml:space="preserve" width="128" height="128" viewBox="0 0 24 24"><path d="M18.5 24h-13A2.503 2.503 0 0 1 3 21.5v-19C3 1.122 4.122 0 5.5 0h13C19.878 0 21 1.122 21 2.5v19c0 1.378-1.122 2.5-2.5 2.5zM5.5 1C4.673 1 4 1.673 4 2.5v19c0 .827.673 1.5 1.5 1.5h13c.827 0 1.5-.673 1.5-1.5v-19c0-.827-.673-1.5-1.5-1.5h-13z"/><path d="M17.5 13h-11a.5.5 0 0 1 0-1h11a.5.5 0 0 1 0 1zM17.5 9h-11a.5.5 0 0 1 0-1h11a.5.5 0 0 1 0 1zM12.5 5h-6a.5.5 0 0 1 0-1h6a.5.5 0 0 1 0 1zM12 20a.51.51 0 0 1-.313-.109l-2.5-2a.501.501 0 0 1 .625-.781L12 18.86l2.188-1.75a.501.501 0 0 1 .625.781l-2.5 2A.51.51 0 0 1 12 20z"/></svg>